<?xml version="1.0" encoding="UTF-8" standalone="no"?>
<svg
   xmlns:dc="http://purl.org/dc/elements/1.1/"
   xmlns:cc="http://creativecommons.org/ns#"
   xmlns:rdf="http://www.w3.org/1999/02/22-rdf-syntax-ns#"
   xmlns:svg="http://www.w3.org/2000/svg"
   xmlns="http://www.w3.org/2000/svg"
   xmlns:xlink="http://www.w3.org/1999/xlink"
   xmlns:sodipodi="http://sodipodi.sourceforge.net/DTD/sodipodi-0.dtd"
   xmlns:inkscape="http://www.inkscape.org/namespaces/inkscape"
   aria-hidden="true"
   focusable="false"
   data-prefix="fas"
   data-icon="rocket"
   class="svg-inline--fa fa-rocket fa-w-16"
   role="img"
   viewBox="0 0 540.64342 537.97265"
   version="1.1"
   id="svg4"
   sodipodi:docname="rocket-solid.svg"
   width="540.64343"
   height="537.97266"
   inkscape:export-filename="/home/gedl/Downloads/rocket-solid.png"
   inkscape:export-xdpi="40.486969"
   inkscape:export-ydpi="40.486969"
   inkscape:version="0.92.5 (2060ec1f9f, 2020-04-08)">
  <metadata
     id="metadata10">
    <rdf:RDF>
      <cc:Work
         rdf:about="">
        <dc:format>image/svg+xml</dc:format>
        <dc:type
           rdf:resource="http://purl.org/dc/dcmitype/StillImage" />
        <dc:title></dc:title>
      </cc:Work>
    </rdf:RDF>
  </metadata>
  <defs
     id="defs8">
    <linearGradient
       inkscape:collect="always"
       id="linearGradient831">
      <stop
         style="stop-color:#5800ff;stop-opacity:1"
         offset="0"
         id="stop827" />
      <stop
         style="stop-color:#ffc600;stop-opacity:1"
         offset="1"
         id="stop829" />
    </linearGradient>
    <linearGradient
       inkscape:collect="always"
       xlink:href="#linearGradient831"
       id="linearGradient833"
       x1="-457.48807"
       y1="376.8114"
       x2="-175.45418"
       y2="376.8114"
       gradientUnits="userSpaceOnUse"
       gradientTransform="matrix(0.7146503,-0.69795157,0.72762419,0.68457038,48.032615,-35.009107)" />
  </defs>
  <sodipodi:namedview
     pagecolor="#ffffff"
     bordercolor="#666666"
     borderopacity="1"
     objecttolerance="10"
     gridtolerance="10"
     guidetolerance="10"
     inkscape:pageopacity="0"
     inkscape:pageshadow="2"
     inkscape:window-width="2560"
     inkscape:window-height="1376"
     id="namedview6"
     showgrid="false"
     inkscape:pagecheckerboard="true"
     inkscape:zoom="0.4609375"
     inkscape:cx="-89.195512"
     inkscape:cy="-78.881154"
     inkscape:window-x="0"
     inkscape:window-y="27"
     inkscape:window-maximized="1"
     inkscape:current-layer="svg4" />
  <path
     style="fill:url(#linearGradient833);fill-opacity:1;stroke:none;stroke-width:0.09985363;stroke-miterlimit:4;stroke-dasharray:none;stroke-opacity:1"
     d="M 173.38477,336.48633 A 62.784457,140.89738 46.278395 0 0 50.265625,400.75586 62.784457,140.89738 46.278395 0 0 0,466.5957 v 71.37696 h 70.677735 a 62.784457,140.89738 46.278395 0 0 71.144535,-51.07618 62.784457,140.89738 46.278395 0 0 55,-141.49218 62.784457,140.89738 46.278395 0 0 -23.4375,-8.91797 z"
     id="path825"
     inkscape:connector-curvature="0" />
  <path
     d="M 533.7635,19.09375 C 532.57405,13.562499 527.10531,8.0937569 521.55649,6.9062629 489.35931,0 464.1503,0 439.05077,0 335.81854,0 273.9124,55.20312 227.69569,128 H 123.48103 c -16.34763,0.0156 -35.556591,11.875 -42.886638,26.48438 l -49.43546,98.8125 A 28.4,28.4 0 0 0 28.643313,264 24.00867,24.00867 0 0 0 52.649054,288.00008 H 156.45941 l -22.47449,22.46883 c -11.36539,11.36115 -12.99608,32.25781 0,45.25 l 50.90452,50.90593 c 11.15624,11.18749 32.1562,13.15625 45.27726,0 L 252.6412,384.156 v 103.84375 a 24.00867,24.00867 0 0 0 24.00573,24.00008 28.55934,28.55934 0 0 0 10.70699,-2.51562 l 98.72834,-49.39063 c 14.62888,-7.29687 26.50742,-26.50034 26.50777,-42.85937 l -1e-5,-104.4375 c 72.59753,-46.3125 128.03494,-108.40626 128.03494,-211.09376 0.0938,-25.203118 0.0938,-50.406242 -6.86131,-82.609369 z M 412.68364,168 A 40,40 0 1 1 452.69342,128.00012 40.02322,40.02322 0 0 1 412.68364,168 Z"
     id="path2"
     inkscape:connector-curvature="0"
     style="fill:currentColor" />
</svg>
